<?xml version="1.0" encoding="UTF-8" standalone="no"?><!-- Generator: Gravit.io --><svg xmlns="http://www.w3.org/2000/svg" xmlns:xlink="http://www.w3.org/1999/xlink" style="isolation:isolate" viewBox="0 0 200 200" width="200pt" height="200pt"><defs><clipPath id="_clipPath_TXLCKIn7EgAZc8ppYHiwTbjQQZCbftJe"><rect width="200" height="200"/></clipPath></defs><g clip-path="url(#_clipPath_TXLCKIn7EgAZc8ppYHiwTbjQQZCbftJe)"><path d="M 72.185 33 L 129.815 33 C 145.095 33 157.5 45.405 157.5 60.685 L 157.5 123.315 C 157.5 138.595 145.095 151 129.815 151 L 72.185 151 C 56.905 151 44.5 138.595 44.5 123.315 L 44.5 60.685 C 44.5 45.405 56.905 33 72.185 33 Z" style="stroke:none;fill:#466846;stroke-miterlimit:10;"/><path d=" M 128 121 L 150 121 L 140 92 L 128 121 Z " fill="rgb(244,244,244)"/><path d=" M 56 121 L 78 121 L 68 92 L 56 121 Z " fill="rgb(244,244,244)"/><path d="M 46.68 121 L 155.32 121 C 162.87 121 169 127.13 169 134.68 L 169 155.32 C 169 162.87 162.87 169 155.32 169 L 46.68 169 C 39.13 169 33 162.87 33 155.32 L 33 134.68 C 33 127.13 39.13 121 46.68 121 Z" style="stroke:none;fill:#466846;stroke-miterlimit:10;"/><path d=" M 154.5 67 L 192 67 Q 182 101.8 154.5 101 L 154.5 67 Z " fill="rgb(70,104,70)"/><path d=" M 45.5 67.907 L 9 67.907 Q 18.733 101.779 45.5 101 L 45.5 67.907 Z " fill="rgb(70,104,70)"/><circle vector-effect="non-scaling-stroke" cx="88.50000000000003" cy="70.49999999999997" r="10.5" fill="rgb(255,153,0)"/><circle vector-effect="non-scaling-stroke" cx="88.50000000000003" cy="70.49999999999999" r="3.5" fill="rgb(0,0,0)"/><circle vector-effect="non-scaling-stroke" cx="117.5" cy="70.49999999999997" r="10.5" fill="rgb(255,153,0)"/><circle vector-effect="non-scaling-stroke" cx="117.49999999999999" cy="70.49999999999999" r="3.5" fill="rgb(0,0,0)"/></g></svg>